<?xml version="1.0" encoding="utf-8"?>
<!-- Generator: Adobe Illustrator 23.0.2, SVG Export Plug-In . SVG Version: 6.00 Build 0)  -->
<svg version="1.1" id="Layer_1" xmlns="http://www.w3.org/2000/svg" xmlns:xlink="http://www.w3.org/1999/xlink" x="0px" y="0px"
	 viewBox="0 0 267.3 78.1" style="enable-background:new 0 0 267.3 78.1;" xml:space="preserve">
<style type="text/css">
	.st0{fill:#F26F24;}
	.st1{fill:#1A1A1A;}
	.st2{font-family:'MyriadPro-Bold';}
	.st3{font-size:37.4884px;}
	.st4{font-family:'MyriadPro-Regular';}
	.st5{font-size:26.7774px;}
</style>
<g id="Shape_1">
	
		<image style="overflow:visible;opacity:0.33;" width="409" height="438" xlink:href="59A7E4EFA8C04F69.png"  transform="matrix(0.24 0 0 0.24 -8.1742 -8.1038)">
	</image>
	<g>
		<g>
			<polygon class="st0" points="69.8,67.8 64.6,48.3 60.4,62 53.8,60.1 68.7,10.6 62.4,8.9 58.3,22.1 53,2 37.6,15.8 52,12.8 
				53.9,19.3 2,30.3 3.6,36.8 17.7,33.8 2.7,47.5 22.7,53.7 12.9,42.8 17.6,38.9 54.7,77 59.6,72.7 49.9,61.9 			"/>
		</g>
	</g>
</g>
<text transform="matrix(1 0 0 1 73.9853 48.111)"><tspan x="0" y="0" class="st1 st2 st3">Inteletry</tspan><tspan x="143.9" y="0" class="st1 st4 st3"> </tspan><tspan x="151.9" y="0" class="st1 st4 st5">LLC</tspan></text>
</svg>
